<svg width="1200" height="900" viewBox="0 0 1200 900" xmlns="http://www.w3.org/2000/svg">
  <rect width="1200" height="900" fill="#121212" />
  
  <defs>
    <linearGradient id="shimmer" x1="-100%" y1="0" x2="0%" y2="0">
      <stop offset="0%" stop-color="#1E1E1E" />
      <stop offset="50%" stop-color="#2C2C2C" />
      <stop offset="100%" stop-color="#1E1E1E" />
      <animate attributeName="x1" values="-100%; 100%" dur="1.5s" repeatCount="indefinite" />
      <animate attributeName="x2" values="0%; 200%" dur="1.5s" repeatCount="indefinite" />
    </linearGradient>
  </defs>

  <rect width="1200" height="900" fill="url(#shimmer)" />

  <g transform="translate(550, 320) scale(4)" fill="#00d1b2">
    <path d="M19 3H5c-1.1 0-2 .9-2 2v14c0 1.1.9 2 2 2h14c1.1 0 2-.9 2-2V5c0-1.1-.9-2-2-2zm-2 10h-4v4h-2v-4H7v-2h4V7h2v4h4v2z"/>
  </g>

  <text id="text-main" x="600" y="550" font-family="sans-serif" font-size="48" font-weight="bold" fill="#ffffff" text-anchor="middle"></text>
  <text id="text-sub" x="600" y="650" font-family="sans-serif" font-size="32" fill="#a0a0a0" text-anchor="middle"></text>

  <rect width="1196" height="896" x="2" y="2" fill="none" stroke="#333333" stroke-width="4" rx="16" />

  <script type="application/javascript"><![CDATA[
    const data = [
      { 
        title: "مساحة إعلانية متاحة", 
        desc: 'تواصل مع إدارة "صوان" لحجز هذه المساحة', 
        dir: "rtl" 
      },
      { 
        title: "Advertising space available", 
        desc: "Contact Siwane management to reserve this space", 
        dir: "ltr" 
      }
    ];

    const mainEl = document.getElementById("text-main");
    const subEl = document.getElementById("text-sub");

    async function typeText(el, text, speed) {
      el.textContent = "";
      for (let char of text) {
        el.textContent += char;
        await new Promise(r => setTimeout(r, speed));
      }
    }

    async function startLoop() {
      let i = 0;
      while (true) {
        let item = data[i % 2];
        
        // ضبط الاتجاه لضمان الكتابة الصحيحة (يمين/يسار)
        mainEl.setAttribute("direction", item.dir);
        subEl.setAttribute("direction", item.dir);

        await typeText(mainEl, item.title, 100);
        await typeText(subEl, item.desc, 50);
        
        await new Promise(r => setTimeout(r, 8000));
        
        mainEl.textContent = "";
        subEl.textContent = "";
        i++;
      }
    }

    startLoop();
  ]]></script>
</svg>
